<?xml version="1.0" ?><svg id="Layer_1" style="enable-background:new 0 0 128 128;" version="1.1" viewBox="0 0 128 128" xml:space="preserve" xmlns="http://www.w3.org/2000/svg" xmlns:xlink="http://www.w3.org/1999/xlink"><style type="text/css">
	.st0{fill:#FFFFFF;}
	.st1{fill:none;stroke:#444B54;stroke-width:6;stroke-linecap:round;stroke-linejoin:round;stroke-miterlimit:10;}
	.st2{fill:#76ECFF;}
	.st3{fill:#E4E7E7;}
	.st4{fill:#FF697B;}
	.st5{fill:#659EC9;}
	.st6{fill:#444B54;}
	.st7{fill:#A4F4C4;}
	.st8{fill:#06A18C;}
	.st9{fill:#8FE5B5;}
	.st10{opacity:0.5;fill:#06A18C;}
	.st11{opacity:0.5;}
	.st12{fill:#FFDBAB;}
	.st13{fill:#D18669;}
	.st14{fill:#FCF09D;}
	.st15{fill:none;stroke:#FFFFFF;stroke-miterlimit:10;}
	.st16{fill:#EDECEB;}
	.st17{fill:#4FBBC6;}
	.st18{display:none;}
	.st19{display:inline;fill:#5EC8D3;}
	.st20{display:inline;}
	.st21{fill:#ED74A5;}
	.st22{fill:#C12762;}
</style><g><g><path class="st3" d="M69.9,16c-27.3,0-41.1,19.6-41.1,35.9c0,9.9,3.7,18.7,11.8,21.9c1.3,0.5,2.5,0,2.9-1.4c0.3-1,0.9-3.5,1.2-4.6    c0.4-1.4,0.2-1.9-0.8-3.2c-2.3-2.7-3.8-6.3-3.8-11.3c0-14.5,10.9-27.5,28.3-27.5c15.4,0,23.9,9.4,23.9,22    c0,16.6-7.3,30.5-18.2,30.5c-6,0-10.5-5-9.1-11.1c0.7-3,1.7-6.1,2.6-9.1C68.8,54,70,50,70,46.9c0-4.7-2.5-8.6-7.7-8.6    c-6.1,0-11.1,6.4-11.1,14.9c0,5.4,1.8,9.1,1.8,9.1s-6.3,26.6-7.4,31.3c-2.2,9.3-0.3,20.7-0.2,21.8c0.1,0.7,1,0.8,1.4,0.3    c0.6-0.7,7.9-9.8,10.4-18.8c0.7-2.6,4-15.8,4-15.8c2,3.8,7.8,7.2,14,7.2c18.5,0,31-16.8,31-39.4C106.2,31.9,91.8,16,69.9,16z"/></g><g><path class="st6" d="M75.2,91.3c-1.7,0-3-1.3-3-3s1.3-3,3-3c16.5,0,28-15,28-36.4c0-7.6-3.3-15.2-9-20.7C88,22.3,79.4,19,69.9,19    c-14.7,0-23.7,5.9-28.6,10.9c-6,6.1-9.4,14.1-9.4,22c0,9.6,3.6,16.6,9.9,19.2c1.5,0.6,2.3,2.4,1.6,3.9c-0.6,1.5-2.4,2.3-3.9,1.6    c-8.5-3.5-13.6-12.7-13.6-24.7c0-9.5,4.1-19,11.2-26.2C42.7,19.9,53.1,13,69.9,13c11,0,21.2,3.9,28.5,10.9    c6.9,6.6,10.9,15.8,10.9,25C109.2,73.5,94.9,91.3,75.2,91.3z"/></g><g><path class="st6" d="M46.2,119c-0.3,0-0.7,0-1-0.1c-1.5-0.4-2.5-1.6-2.7-3.1l0-0.2c-0.7-5-1.7-14.5,0.3-22.7l2.3-9.6    c0.4-1.6,2-2.6,3.6-2.2c1.6,0.4,2.6,2,2.2,3.6l-2.3,9.6c-1.2,4.9-1.1,10.5-0.8,15.1c3.2-4.7,5.5-9.3,6.5-13.2    c0.5-1.9,2.6-10.2,3.3-12.7c0.4-1.6,2-2.6,3.6-2.2c1.6,0.4,2.6,2,2.2,3.6c-0.8,3.2-2.8,10.9-3.3,12.9c-2.2,7.9-7.7,15.7-10.7,19.7    l-0.1,0.2C48.4,118.5,47.3,119,46.2,119z M48.4,114.9L48.4,114.9C48.4,114.9,48.4,114.9,48.4,114.9z M44.4,113.9    C44.4,113.9,44.4,113.9,44.4,113.9L44.4,113.9z"/></g><g><path class="st6" d="M50.9,74c-0.2,0-0.5,0-0.7-0.1c-1.6-0.4-2.6-2-2.2-3.6l1.8-7.8c-0.6-1.6-1.7-5-1.7-9.4    c0-10,6.2-17.9,14.1-17.9C68.7,35.3,73,40,73,46.9c0,1.7-1.3,3-3,3s-3-1.3-3-3c0-2.1-0.6-5.6-4.7-5.6c-4.5,0-8.1,5.2-8.1,11.9    c0,4.6,1.5,7.7,1.5,7.7c0.3,0.6,0.4,1.3,0.2,2l-2.1,8.8C53.5,73.1,52.3,74,50.9,74z"/></g><g><path class="st6" d="M74,81.4c-4,0-7.5-1.7-9.9-4.6c-2.2-2.8-3-6.4-2.1-10.2c0.4-1.6,2-2.6,3.6-2.2c1.6,0.4,2.6,2,2.2,3.6    c-0.4,1.9-0.1,3.7,1,5.1c1.2,1.5,3,2.3,5.2,2.3c8.5,0,15.2-12.1,15.2-27.5c0-11.7-8-19-20.9-19c-1.7,0-3-1.3-3-3s1.3-3,3-3    c16.1,0,26.9,10.1,26.9,25C95.2,66.9,86.1,81.4,74,81.4z"/></g></g></svg>